<svg width="80" height="107" viewBox="0 0 80 107" fill="none" xmlns="http://www.w3.org/2000/svg">
<g filter="url(#filter0_i_719_1836)">
<path d="M6.25572 26.3797C6.55148 22.6036 9.70197 19.6902 13.4897 19.6902H66.5103C70.298 19.6902 73.4485 22.6036 73.7443 26.3797L79.7549 103.121C79.8871 104.808 78.5536 106.25 76.8613 106.25H3.13866C1.44635 106.25 0.112938 104.808 0.24508 103.121L6.25572 26.3797Z" fill="url(#paint0_linear_719_1836)"/>
<g filter="url(#filter1_i_719_1836)">
<path d="M21.7184 27.8209C21.7184 28.5573 22.3154 29.1542 23.0518 29.1542C23.7881 29.1542 24.3851 28.5573 24.3851 27.8209C24.3851 27.0845 23.7881 26.4876 23.0518 26.4876C22.3154 26.4876 21.7184 27.0845 21.7184 27.8209ZM25.1198 6.79582L25.3686 6.82029V6.82029L25.1198 6.79582ZM54.2041 6.79582L54.4529 6.77135V6.77135L54.2041 6.79582ZM54.9388 27.8209C54.9388 28.5573 55.5357 29.1542 56.2721 29.1542C57.0085 29.1542 57.6054 28.5573 57.6054 27.8209C57.6054 27.0845 57.0085 26.4876 56.2721 26.4876C55.5357 26.4876 54.9388 27.0845 54.9388 27.8209ZM23.0518 27.8209L23.3006 27.8454L25.3686 6.82029L25.1198 6.79582L24.871 6.77135L22.803 27.7964L23.0518 27.8209ZM32.341 0.25V0.5H46.9828V0.25V0H32.341V0.25ZM54.2041 6.79582L53.9553 6.82029L56.0233 27.8454L56.2721 27.8209L56.5209 27.7964L54.4529 6.77135L54.2041 6.79582ZM46.9828 0.25V0.5C50.5866 0.5 53.6025 3.23385 53.9553 6.82029L54.2041 6.79582L54.4529 6.77135C54.0749 2.92895 50.8438 0 46.9828 0V0.25ZM25.1198 6.79582L25.3686 6.82029C25.7213 3.23385 28.7373 0.5 32.341 0.5V0.25V0C28.4801 0 25.2489 2.92896 24.871 6.77135L25.1198 6.79582Z" fill="#E09213"/>
</g>
<path d="M37.373 64.756L57.9287 89.9406H42.6533L22.4238 64.756L42.6533 35.5959H57.9287L37.373 64.756ZM41.1104 64.756L61.666 89.9406H59.4707L39.2422 64.756L59.4707 35.5959H61.666L41.1104 64.756Z" fill="white"/>
</g>
<defs>
<filter id="filter0_i_719_1836" x="0.236328" y="0" width="79.5273" height="110.25" filterUnits="userSpaceOnUse" color-interpolation-filters="sRGB">
<feFlood flood-opacity="0" result="BackgroundImageFix"/>
<feBlend mode="normal" in="SourceGraphic" in2="BackgroundImageFix" result="shape"/>
<feColorMatrix in="SourceAlpha" type="matrix" values="0 0 0 0 0 0 0 0 0 0 0 0 0 0 0 0 0 0 127 0" result="hardAlpha"/>
<feOffset dy="4"/>
<feGaussianBlur stdDeviation="2.25"/>
<feComposite in2="hardAlpha" operator="arithmetic" k2="-1" k3="1"/>
<feColorMatrix type="matrix" values="0 0 0 0 0.176471 0 0 0 0 0 0 0 0 0 0.305882 0 0 0 0.7 0"/>
<feBlend mode="normal" in2="shape" result="effect1_innerShadow_719_1836"/>
</filter>
<filter id="filter1_i_719_1836" x="21.7188" y="0" width="35.8867" height="29.1542" filterUnits="userSpaceOnUse" color-interpolation-filters="sRGB">
<feFlood flood-opacity="0" result="BackgroundImageFix"/>
<feBlend mode="normal" in="SourceGraphic" in2="BackgroundImageFix" result="shape"/>
<feColorMatrix in="SourceAlpha" type="matrix" values="0 0 0 0 0 0 0 0 0 0 0 0 0 0 0 0 0 0 127 0" result="hardAlpha"/>
<feOffset/>
<feGaussianBlur stdDeviation="1"/>
<feComposite in2="hardAlpha" operator="arithmetic" k2="-1" k3="1"/>
<feColorMatrix type="matrix" values="0 0 0 0 0 0 0 0 0 0 0 0 0 0 0 0 0 0 0.25 0"/>
<feBlend mode="normal" in2="shape" result="effect1_innerShadow_719_1836"/>
</filter>
<linearGradient id="paint0_linear_719_1836" x1="40" y1="19.6902" x2="40" y2="106.25" gradientUnits="userSpaceOnUse">
<stop offset="0.520317" stop-color="#2D17FC"/>
<stop offset="0.520417" stop-color="#E09213"/>
</linearGradient>
</defs>
</svg>
