<svg width="58" height="56" viewBox="0 0 58 56" fill="none" xmlns="http://www.w3.org/2000/svg">
<path d="M27.3613 17.6884H21.4863V29.4384H27.3613V23.5634V17.6884ZM57.0135 7.77659C58.0627 4.70626 56.4244 1.36666 53.354 0.317387C50.2837 -0.73189 46.9441 0.906496 45.8948 3.97682L51.4541 5.87671L57.0135 7.77659ZM27.3613 23.5634V29.4384H34.6842V23.5634V17.6884H27.3613V23.5634ZM48.8782 13.4142L54.4375 15.3141L57.0135 7.77659L51.4541 5.87671L45.8948 3.97682L43.3189 11.5143L48.8782 13.4142ZM34.6842 23.5634V29.4384C43.6114 29.4384 51.5506 23.7616 54.4375 15.3141L48.8782 13.4142L43.3189 11.5143C42.0569 15.207 38.5865 17.6884 34.6842 17.6884V23.5634Z" fill="#E09213"/>
<path d="M27.3613 38.0938H21.4863V26.3438H27.3613V32.2188V38.0938ZM57.0135 48.0056C58.0627 51.076 56.4244 54.4156 53.354 55.4648C50.2837 56.5141 46.9441 54.8757 45.8948 51.8054L51.4541 49.9055L57.0135 48.0056ZM27.3613 32.2188V26.3438H31.109V32.2188V38.0938H27.3613V32.2188ZM50.0344 45.7511L55.5937 43.8512L57.0135 48.0056L51.4541 49.9055L45.8948 51.8054L44.4751 47.651L50.0344 45.7511ZM31.109 32.2188V26.3438C42.1745 26.3438 52.0153 33.3803 55.5937 43.8512L50.0344 45.7511L44.4751 47.651C42.5216 41.935 37.1496 38.0938 31.109 38.0938V32.2188Z" fill="#2D17FC"/>
<path d="M5.87598 7.75982C16.5543 2.55392 19.4473 11.4392 19.4473 17.0263C19.4473 22.6135 19.4473 30.1085 19.4473 30.1085C19.4473 35.1505 19.4473 49.4592 19.4473 49.4592" stroke="#2D17FC" stroke-width="11.75" stroke-linecap="round"/>
<circle cx="19.4427" cy="49.731" r="2.94855" fill="#E8E8E8"/>
<circle cx="51.3226" cy="50.1004" r="2.94855" fill="#E8E8E8"/>
<path d="M19.035 47.8632C19.1327 47.4308 19.7487 47.4308 19.8464 47.8632C19.9097 48.1434 20.2313 48.2766 20.4742 48.1232C20.849 47.8866 21.2846 48.3222 21.0479 48.697C20.8945 48.9399 21.0277 49.2615 21.308 49.3248C21.7403 49.4225 21.7403 50.0385 21.308 50.1362C21.0277 50.1995 20.8945 50.5211 21.0479 50.764C21.2846 51.1388 20.849 51.5744 20.4742 51.3377C20.2313 51.1843 19.9097 51.3175 19.8464 51.5978C19.7487 52.0301 19.1327 52.0301 19.035 51.5978C18.9717 51.3175 18.6501 51.1843 18.4072 51.3377C18.0324 51.5744 17.5968 51.1388 17.8335 50.764C17.9868 50.5211 17.8536 50.1995 17.5734 50.1362C17.141 50.0385 17.141 49.4225 17.5734 49.3248C17.8536 49.2615 17.9868 48.9399 17.8335 48.697C17.5968 48.3222 18.0324 47.8866 18.4072 48.1232C18.6501 48.2766 18.9717 48.1434 19.035 47.8632Z" fill="#333333"/>
<path d="M50.8065 48.3461C50.9041 47.9137 51.5202 47.9137 51.6179 48.3461C51.6812 48.6263 52.0028 48.7595 52.2457 48.6062C52.6205 48.3695 53.0561 48.8051 52.8194 49.1799C52.666 49.4228 52.7992 49.7444 53.0795 49.8077C53.5118 49.9054 53.5118 50.5214 53.0795 50.6191C52.7992 50.6824 52.666 51.004 52.8194 51.2469C53.0561 51.6217 52.6205 52.0573 52.2457 51.8206C52.0028 51.6672 51.6812 51.8004 51.6179 52.0807C51.5202 52.5131 50.9041 52.5131 50.8065 52.0807C50.7432 51.8004 50.4216 51.6672 50.1787 51.8206C49.8039 52.0573 49.3683 51.6217 49.6049 51.2469C49.7583 51.004 49.6251 50.6824 49.3449 50.6191C48.9125 50.5214 48.9125 49.9054 49.3449 49.8077C49.6251 49.7444 49.7583 49.4228 49.6049 49.1799C49.3683 48.8051 49.8039 48.3695 50.1787 48.6062C50.4216 48.7595 50.7432 48.6263 50.8065 48.3461Z" fill="#333333"/>
<g clip-path="url(#clip0_643_329)">
<path d="M31.8592 10.1215C31.7879 9.5816 31.6672 8.63012 31.747 8.10638C31.8269 7.58264 32.036 7.09977 32.4723 6.90871C32.8496 6.74427 33.3201 6.91821 33.592 7.32504C33.7469 7.55697 33.8353 7.84308 33.9104 8.12634C34.0387 8.61301 34.1614 9.27838 34.2231 9.77931" stroke="#699DF0" stroke-width="0.220312" stroke-miterlimit="10"/>
<path d="M32.2164 17.4585L29.9189 16.5014L30.4522 14.1497L30.3381 8.79064L36.1516 8.10815V8.61574L37.5346 8.79064L32.2164 17.4585Z" fill="#3B82F6" fill-opacity="0.501961"/>
<path d="M38.0275 16.5842L32.215 17.4644L31.7207 14.3866V9.67001L37.5342 8.79077V13.5064L38.0275 16.5842Z" fill="#E09213"/>
<path d="M31.7209 9.66989V9.13949L30.3379 8.79065L36.1627 8.14429L36.3491 8.55682L37.5344 8.79065L31.7209 9.66989Z" fill="#D99426" fill-opacity="0.501961"/>
<path d="M29.9189 16.5014C29.9589 16.5014 31.2953 15.4416 31.2953 15.4416L32.2154 17.4643L32.0177 14.2391L31.7183 9.66992L31.3295 14.6079L29.9189 16.5014Z" fill="#B8D0F6"/>
<path d="M36.1457 8.2052L36.2863 8.53028L36.3044 8.57305L36.3491 8.58446L37.0572 8.76601L31.816 9.5597V9.06543L31.7438 9.04737L30.8617 8.82494L36.1457 8.2052ZM36.2055 8.10254L30.3389 8.79072L31.7219 9.13957V9.67092L37.5344 8.79072L36.3738 8.49226L36.2055 8.10254Z" fill="#3B82F6" fill-opacity="0.501961"/>
<path d="M33.4748 10.0264C33.4035 9.48744 32.6612 7.41718 34.0822 7.15293C35.1563 6.95332 35.6306 9.24125 35.6934 9.74313" stroke="#DEAA56" stroke-width="0.220312" stroke-miterlimit="10"/>
<path d="M33.6515 10.1766C33.5688 9.89806 33.4823 9.33535 33.4785 9.31063L33.7599 9.26786C33.7608 9.27356 33.8616 9.84768 33.9718 10.1167L33.6515 10.1766ZM35.8682 9.83913C35.7855 9.56062 35.699 8.99791 35.6952 8.97319L35.9765 8.93042C35.9775 8.93612 36.0944 9.51975 36.1923 9.7802L35.8682 9.83913ZM33.7494 17.2324L34.5479 15.8493L34.1667 12.1622L37.3576 11.5415L35.6467 16.9491L33.7494 17.2324Z" fill="#3B82F6" fill-opacity="0.501961"/>
<path d="M36.242 11.7944C36.242 11.7944 35.8827 9.88668 37.0794 10.0131C37.7305 10.0815 37.7039 11.5957 37.7039 11.5957" stroke="#699DF0" stroke-width="0.220312" stroke-miterlimit="10"/>
<path d="M36.3745 18.1573L34.6094 17.4188L35.02 15.6108L34.9326 11.4912L39.4001 10.9666V11.3572L40.4628 11.4912L36.3745 18.1573Z" fill="#699DF0"/>
<path d="M40.8419 17.4815L36.3744 18.1582L35.9951 15.7924V12.168L40.4626 11.4912V15.1165L40.8419 17.4815Z" fill="#2D17FC"/>
<path d="M35.9953 12.168L35.6379 11.8943L34.9326 11.4912L39.4001 10.9666L39.806 11.2222L40.4628 11.4912L35.9953 12.168Z" fill="#2D004E"/>
<path d="M39.383 11.0645L40.1482 11.4418L36.0153 12.0673L35.2083 11.554L39.383 11.0645ZM39.4001 10.9666L34.9326 11.4912L35.9953 12.168L40.4628 11.4912L39.4001 10.9666Z" fill="#699DF0"/>
<path d="M37.5061 12.5319C37.4425 12.319 37.3769 11.8865 37.374 11.8684L37.625 11.8361C37.6259 11.8409 37.6896 12.2762 37.7485 12.4768L37.5061 12.5319ZM39.2066 12.2705C39.143 12.0576 39.0774 11.6251 39.0745 11.6071L39.3226 11.5757C39.3236 11.5804 39.3749 12.0291 39.4338 12.2296L39.2066 12.2705Z" fill="#699DF0"/>
<path d="M37.3647 12.5414C37.3095 12.127 36.7449 10.3799 37.8095 10.2326C38.6412 10.1175 38.9996 11.838 39.048 12.223" stroke="#2D17FC" stroke-width="0.220312" stroke-miterlimit="10"/>
<path d="M34.6094 17.4186L35.5114 16.6543L36.3745 18.1581L35.9972 15.8065L36.001 12.1792L35.8945 12.1355L35.558 15.8226L34.6094 17.4186Z" fill="#4B0082" fill-opacity="0.1"/>
</g>
<defs>
<clipPath id="clip0_643_329">
<rect width="12.1668" height="12.1668" fill="white" transform="translate(29.2969 6.37158)"/>
</clipPath>
</defs>
</svg>
